<svg xmlns="http://www.w3.org/2000/svg" version="1.1" xmlns:xlink="http://www.w3.org/1999/xlink" xmlns:svgjs="http://svgjs.dev/svgjs" width="1500" height="253" viewBox="0 0 1500 253"><g transform="matrix(1,0,0,1,-0.9090909090909918,-0.9994545817643967)"><svg viewBox="0 0 396 67" data-background-color="#ffffff" preserveAspectRatio="xMidYMid meet" height="253" width="1500" xmlns="http://www.w3.org/2000/svg" xmlns:xlink="http://www.w3.org/1999/xlink"><g id="tight-bounds" transform="matrix(1,0,0,1,0.2400000000000091,0.26467769556606413)"><svg viewBox="0 0 395.52 66.47064460886787" height="66.47064460886787" width="395.52"><g><svg viewBox="0 0 514.4356887185086 86.45548098434001" height="66.47064460886787" width="395.52"><g><rect width="7.757855221118567" height="86.45548098434001" x="90.84931197613719" y="0" fill="#ffff" opacity="1" stroke-width="0" stroke="transparent" fill-opacity="1" class="rect-yte-0" data-fill-palette-color="primary" rx="1%" id="yte-0" data-palette-color="#000000"></rect></g><g transform="matrix(1,0,0,1,118.91568871850853,0.2150633855331776)"><svg viewBox="0 0 395.52 86.02535421327366" height="86.02535421327366" width="395.52"><g id="textblocktransform"><svg viewBox="0 0 395.52 86.02535421327366" height="86.02535421327366" width="395.52" id="textblock"><g><svg viewBox="0 0 395.52 86.02535421327366" height="86.02535421327366" width="395.52"><g transform="matrix(1,0,0,1,0,0)"><svg width="395.52" viewBox="0.55 -43.35 201.13 43.75" height="86.02535421327366" data-palette-color="#000000"><path d="M17.6 0L5.85 0 0.55-43 8.75-43 11.9-13.75 14.7-43 22.9-43 17.6 0ZM33.25 0L24.95 0 24.95-42.95 33.25-42.95 33.25 0ZM36.7 0L36.7-42.95 48.34-42.95Q53.05-42.95 55.17-40.65 57.3-38.35 57.3-33.15L57.3-33.15 57.3-31.25Q57.3-25.1 52.9-23.9L52.9-23.9Q55.59-23.2 56.7-20.65 57.8-18.1 57.8-13.9L57.8-13.9Q57.8-7.05 55.75-3.53 53.7 0 48.34 0L48.34 0 36.7 0ZM45.09-26.8L46.84-26.8Q47.95-26.8 48.34-27.63 48.75-28.45 48.75-29.95L48.75-29.95 48.75-34.25Q48.75-36.35 46.9-36.35L46.9-36.35 45.09-36.35 45.09-26.8ZM45.95-7.55Q49.3-7.55 49.3-10.75L49.3-10.75 49.3-16.1Q49.3-18.05 48.72-19.05 48.15-20.05 46.7-20.05L46.7-20.05 45.09-20.05 45.09-7.6 45.95-7.55ZM78.39 0L60.64 0 60.64-42.95 77.84-42.95 77.84-34.65 69.39-34.65 69.39-26.3 77.49-26.3 77.49-18.2 69.39-18.2 69.39-8.35 78.39-8.35 78.39 0ZM103.14 0.4Q97.29 0.4 94.69-2.5 92.09-5.4 92.09-11.85L92.09-11.85 92.09-16.05 100.54-16.05 100.54-10.7Q100.54-7.5 102.59-7.5L102.59-7.5Q103.74-7.5 104.19-8.18 104.64-8.85 104.64-10.45L104.64-10.45Q104.64-12.55 104.14-13.93 103.64-15.3 102.86-16.23 102.09-17.15 100.09-19.1L100.09-19.1 96.39-22.8Q92.09-27 92.09-32.1L92.09-32.1Q92.09-37.6 94.61-40.48 97.14-43.35 101.99-43.35L101.99-43.35Q107.79-43.35 110.34-40.28 112.89-37.2 112.89-30.65L112.89-30.65 104.14-30.65 104.09-33.6Q104.09-34.45 103.61-34.95 103.14-35.45 102.29-35.45L102.29-35.45Q101.29-35.45 100.79-34.9 100.29-34.35 100.29-33.4L100.29-33.4Q100.29-31.3 102.69-29.05L102.69-29.05 107.69-24.25Q109.44-22.55 110.59-21.03 111.74-19.5 112.44-17.43 113.14-15.35 113.14-12.5L113.14-12.5Q113.14-6.15 110.81-2.88 108.49 0.4 103.14 0.4L103.14 0.4ZM128.28 0L119.69 0 119.69-34.7 114.59-34.7 114.59-42.95 133.39-42.95 133.39-34.7 128.28-34.7 128.28 0ZM146.03 0.4Q140.83 0.4 138.13-2.78 135.43-5.95 135.43-11.7L135.43-11.7 135.43-32.15Q135.43-37.7 138.13-40.53 140.83-43.35 146.03-43.35L146.03-43.35Q151.23-43.35 153.93-40.53 156.63-37.7 156.63-32.15L156.63-32.15 156.63-11.7Q156.63-5.9 153.93-2.75 151.23 0.4 146.03 0.4L146.03 0.4ZM146.03-7.5Q147.18-7.5 147.58-8.5 147.98-9.5 147.98-11.3L147.98-11.3 147.98-32.3Q147.98-33.7 147.61-34.58 147.23-35.45 146.08-35.45L146.08-35.45Q143.93-35.45 143.93-32.2L143.93-32.2 143.93-11.25Q143.93-9.4 144.38-8.45 144.83-7.5 146.03-7.5L146.03-7.5ZM160.08 0L160.08-42.95 173.28-42.95Q176.43-42.95 178.16-41.53 179.88-40.1 180.48-37.52 181.08-34.95 181.08-30.95L181.08-30.95Q181.08-27.3 180.13-25.25 179.18-23.2 176.83-22.4L176.83-22.4Q178.78-22 179.66-20.45 180.53-18.9 180.53-16.25L180.53-16.25 180.43 0 172.03 0 172.03-16.8Q172.03-18.6 171.33-19.1 170.63-19.6 168.78-19.6L168.78-19.6 168.78 0 160.08 0ZM168.83-27.05L170.88-27.05Q172.68-27.05 172.68-30.95L172.68-30.95Q172.68-32.65 172.53-33.5 172.38-34.35 171.98-34.68 171.58-35 170.83-35L170.83-35 168.83-35 168.83-27.05ZM201.68 0L183.93 0 183.93-42.95 201.13-42.95 201.13-34.65 192.68-34.65 192.68-26.3 200.78-26.3 200.78-18.2 192.68-18.2 192.68-8.35 201.68-8.35 201.68 0Z" opacity="1" transform="matrix(1,0,0,1,0,0)" fill="#ffff" class="wordmark-text-0" data-fill-palette-color="primary" id="text-0"></path></svg></g></svg></g></svg></g></svg></g><g transform="matrix(1,0,0,1,0,7.957345264727806)"><svg viewBox="0 0 70.5407904548844 70.5407904548844" height="70.5407904548844" width="70.5407904548844"><g><svg xmlns="http://www.w3.org/2000/svg" xmlns:xlink="http://www.w3.org/1999/xlink" version="1.0" x="0" y="0" viewBox="20 20 60 60" enable-background="new 0 0 100 100" xml:space="preserve" height="70.5407904548844" width="70.5407904548844" class="icon-icon-0" data-fill-palette-color="accent" id="icon-0"><path d="M20 26.667A6.67 6.67 0 0 1 26.667 33.334V63.334C26.667 72.539 34.128 80 43.333 80S60 72.539 60 63.334V40A3.33 3.33 0 0 1 63.333 36.667 3.33 3.33 0 0 1 66.667 40V56.666C66.667 64.023 72.637 70 80 70V63.334A6.67 6.67 0 0 1 73.333 56.666V40C73.333 34.476 68.854 30 63.333 30S53.333 34.476 53.333 40V63.334C53.333 68.857 48.854 73.334 43.333 73.334S33.333 68.857 33.333 63.334V33.334C33.333 25.973 27.363 20 20 20z" fill="#ffff" data-fill-palette-color="accent"></path></svg></g></svg></g></svg></g><defs></defs></svg><rect width="395.52" height="66.47064460886787" fill="none" stroke="none" visibility="hidden"></rect></g></svg></g></svg>